# xmcd
#
# Track frame offsets:
#	150
#	15427
#	30345
#	45310
#	58742
#	73435
#	91325
#	108282
#	127112
#	145522
#	167930
#	181160
#	201010
#	214625
#	234267
#	247987
#	266125
#	283130
#	295830
#	311195
#	325910
#
# Disc length: 4564
#
# Revision: 4
# Processed by: cddbd v1.5.1PL0 Copyright (c) Steve Scherf et al.
# Submitted via: VisiTrax 2.9.9.209 - For more info visit www.synapsa.com
# Normalized: r3:DSETVAR2
#
DISCID=3211d215
DTITLE=Various Artist - Absolute New Country
DYEAR=1994
DGENRE=Country
TTITLE0=Kelly Willis - Whatever Way The Wind Blows
TTITLE1=Brooks and Dunn - Boot scootin' boogie
TTITLE2=Reba McEntire - Take it back
TTITLE3=Tracy Byrd - Why
TTITLE4=Carlene Carter - Every little thing
TTITLE5=Vince Gill - I still believe in you
TTITLE6=Tanya Tucker - Delbert McClinton - Tell me about it
TTITLE7=Dwight Yoakam - 1.000 miles
TTITLE8=Maria McKee - Only once
TTITLE9=Iris Dement - Our town
TTITLE10=Tracy Lawrence - Can't break it to my heart
TTITLE11=Ester Brohus - The Perfect Way
TTITLE12=Travis Tritt - T-r-o-u-b-l-e
TTITLE13=Trisha Yearwood - Don Henley - Walkaway Joe
TTITLE14=Tamra Rosanes - That's the Way the World goes 'round
TTITLE15=Clint Black - No time to kill
TTITLE16=K. D. Lang - Miss Chatelaine
TTITLE17=George Strait - When did you stop loving me
TTITLE18=Suzy Bogguss - Other side of the hill
TTITLE19=The Judds (Wynonna and Naomi) - Mama he's crazy
TTITLE20=Henning Stærk /Søs Fenger - We believe in happy endings
EXTD=
EXTT0=
EXTT1=
EXTT2=
EXTT3=
EXTT4=
EXTT5=
EXTT6=
EXTT7=
EXTT8=
EXTT9=
EXTT10=
EXTT11=
EXTT12=
EXTT13=
EXTT14=
EXTT15=
EXTT16=
EXTT17=
EXTT18=
EXTT19=
EXTT20=
PLAYORDER=
